<svg width="1072" height="375" viewBox="0 0 1072 375" fill="none" xmlns="http://www.w3.org/2000/svg">
<path d="M475.2 189.36V324H427.92V304.8C423.92 310.88 418.4 315.84 411.36 319.68C404.32 323.36 396.24 325.2 387.12 325.2C371.44 325.2 359.04 320.08 349.92 309.84C340.96 299.44 336.48 285.36 336.48 267.6V189.36H383.28V261.6C383.28 269.28 385.28 275.36 389.28 279.84C393.44 284.16 398.88 286.32 405.6 286.32C412.48 286.32 417.92 284.16 421.92 279.84C425.92 275.36 427.92 269.28 427.92 261.6V189.36H475.2ZM585.971 324L561.731 290.16L542.531 324H490.931L535.811 254.16L489.011 189.36H541.811L566.051 223.2L585.491 189.36H637.091L591.251 258L638.771 324H585.971ZM699.714 213.12C704.994 205.44 711.394 199.36 718.914 194.88C726.434 190.4 734.514 188.16 743.154 188.16V238.32H729.954C719.714 238.32 712.114 240.32 707.154 244.32C702.194 248.32 699.714 255.28 699.714 265.2V324H652.674V189.36H699.714V213.12ZM752.338 256.56C752.338 242.64 754.818 230.48 759.778 220.08C764.898 209.68 771.778 201.68 780.418 196.08C789.218 190.48 798.978 187.68 809.698 187.68C818.978 187.68 826.978 189.52 833.698 193.2C840.418 196.88 845.618 201.84 849.298 208.08V189.36H896.338V324H849.298V305.28C845.618 311.52 840.338 316.48 833.458 320.16C826.738 323.84 818.818 325.68 809.698 325.68C798.978 325.68 789.218 322.88 780.418 317.28C771.778 311.68 764.898 303.68 759.778 293.28C754.818 282.72 752.338 270.48 752.338 256.56ZM849.298 256.56C849.298 247.92 846.898 241.12 842.098 236.16C837.458 231.2 831.698 228.72 824.818 228.72C817.778 228.72 811.938 231.2 807.298 236.16C802.658 240.96 800.338 247.76 800.338 256.56C800.338 265.2 802.658 272.08 807.298 277.2C811.938 282.16 817.778 284.64 824.818 284.64C831.698 284.64 837.458 282.16 842.098 277.2C846.898 272.24 849.298 265.36 849.298 256.56ZM946.903 176.88C938.583 176.88 931.863 174.64 926.743 170.16C921.783 165.52 919.303 159.76 919.303 152.88C919.303 145.84 921.783 140 926.743 135.36C931.863 130.72 938.583 128.4 946.903 128.4C955.063 128.4 961.623 130.72 966.583 135.36C971.703 140 974.263 145.84 974.263 152.88C974.263 159.76 971.703 165.52 966.583 170.16C961.623 174.64 955.063 176.88 946.903 176.88ZM970.183 189.36V324H923.143V189.36H970.183ZM1044.01 146.4V324H996.971V146.4H1044.01Z" fill="white"/>
<g clip-path="url(#clip0_2317_181)">
<path d="M213.387 271.625C187.672 271.625 166.73 250.703 166.707 224.988L166.68 196.859L-47.9219 196.59L-47.8984 177.922L166.66 178.191L166.449 -36.3477L185.113 -36.3633L185.324 178.219L213.445 178.254C239.156 178.285 260.07 199.227 260.07 224.934C260.07 250.684 239.129 271.625 213.387 271.625ZM185.344 196.883L185.371 224.973C185.387 240.406 197.953 252.961 213.387 252.961C228.836 252.961 241.402 240.395 241.402 224.945C241.402 209.504 228.852 196.937 213.422 196.918L185.344 196.883Z" fill="#00FF30"/>
<path d="M213.426 301.492C192.98 301.492 173.762 293.527 159.309 279.066C144.855 264.605 136.902 245.383 136.914 224.938L136.945 166.594L-47.9453 165.941L-47.8789 147.273L136.957 147.926L137.055 -36.3594L155.723 -36.3516L155.621 147.992L213.695 148.195C255.734 148.344 289.934 182.668 289.934 224.707V224.98C289.934 267.168 255.613 301.492 213.426 301.492ZM155.609 166.656L155.578 224.949C155.57 240.406 161.586 254.938 172.512 265.871C183.438 276.805 197.969 282.824 213.426 282.824C245.32 282.824 271.27 256.875 271.27 224.98V224.707C271.27 192.926 245.414 166.977 213.629 166.863L155.609 166.656Z" fill="#FC0867"/>
<mask id="mask0_2317_181" style="mask-type:luminance" maskUnits="userSpaceOnUse" x="0" y="0" width="320" height="332">
<path d="M0 0H319.555V331.137H0V0Z" fill="white"/>
</mask>
<g mask="url(#mask0_2317_181)">
<path d="M213.406 331.355C184.988 331.355 158.27 320.289 138.176 300.191C118.078 280.098 107.012 253.379 107.016 224.961V137.141L-47.9141 137.07L-47.9062 118.406L107.016 118.477L107.02 -36.3555H125.684V118.484L213.457 118.523C272.094 118.551 319.801 166.277 319.801 224.918C319.801 283.629 272.07 331.355 213.406 331.355ZM125.68 137.152V224.961C125.68 248.395 134.805 270.426 151.375 286.996C167.945 303.562 189.973 312.691 213.406 312.691C261.781 312.691 301.133 273.336 301.133 224.965C301.133 176.566 261.797 137.211 213.449 137.191L125.68 137.152Z" fill="#38B6FF"/>
</g>
</g>
<defs>
<clipPath id="clip0_2317_181">
<rect width="375" height="375" fill="white"/>
</clipPath>
</defs>
</svg>
