<?xml version="1.0" encoding="UTF-8"?>
<svg xmlns="http://www.w3.org/2000/svg" xmlns:xlink="http://www.w3.org/1999/xlink" width="375" height="374.999991" viewBox="0 0 375 374.999991">
<defs>
<clipPath id="clip-0">
<path clip-rule="nonzero" d="M 0 0 L 319.554688 0 L 319.554688 331.136719 L 0 331.136719 Z M 0 0 "/>
</clipPath>
</defs>
<rect x="-37.5" y="-37.499999" width="450" height="449.999989" fill="rgb(100%, 100%, 100%)" fill-opacity="1"/>
<rect x="-37.5" y="-37.499999" width="450" height="449.999989" fill="rgb(16.079712%, 16.079712%, 16.079712%)" fill-opacity="1"/>
<path fill-rule="nonzero" fill="rgb(0%, 100%, 18.818665%)" fill-opacity="1" d="M 213.386719 271.625 C 187.671875 271.625 166.730469 250.703125 166.707031 224.988281 L 166.679688 196.859375 L -47.921875 196.589844 L -47.898438 177.921875 L 166.660156 178.191406 L 166.449219 -36.347656 L 185.113281 -36.363281 L 185.324219 178.21875 L 213.445312 178.253906 C 239.15625 178.285156 260.070312 199.226562 260.070312 224.933594 C 260.070312 250.683594 239.128906 271.625 213.386719 271.625 Z M 185.34375 196.882812 L 185.371094 224.972656 C 185.386719 240.40625 197.953125 252.960938 213.386719 252.960938 C 228.835938 252.960938 241.402344 240.394531 241.402344 224.945312 C 241.402344 209.503906 228.851562 196.9375 213.421875 196.917969 Z M 185.34375 196.882812 "/>
<path fill-rule="nonzero" fill="rgb(98.81897%, 3.138733%, 40.388489%)" fill-opacity="1" d="M 213.425781 301.492188 C 192.980469 301.492188 173.761719 293.527344 159.308594 279.066406 C 144.855469 264.605469 136.902344 245.382812 136.914062 224.9375 L 136.945312 166.59375 L -47.945312 165.941406 L -47.878906 147.273438 L 136.957031 147.925781 L 137.054688 -36.359375 L 155.722656 -36.351562 L 155.621094 147.992188 L 213.695312 148.195312 C 255.734375 148.34375 289.933594 182.667969 289.933594 224.707031 L 289.933594 224.980469 C 289.933594 267.167969 255.613281 301.492188 213.425781 301.492188 Z M 155.609375 166.65625 L 155.578125 224.949219 C 155.570312 240.40625 161.585938 254.9375 172.511719 265.871094 C 183.4375 276.804688 197.96875 282.824219 213.425781 282.824219 C 245.320312 282.824219 271.269531 256.875 271.269531 224.980469 L 271.269531 224.707031 C 271.269531 192.925781 245.414062 166.976562 213.628906 166.863281 Z M 155.609375 166.65625 "/>
<g clip-path="url(#clip-0)">
<path fill-rule="nonzero" fill="rgb(21.958923%, 71.369934%, 100%)" fill-opacity="1" d="M 213.40625 331.355469 C 184.988281 331.355469 158.269531 320.289062 138.175781 300.191406 C 118.078125 280.097656 107.011719 253.378906 107.015625 224.960938 L 107.015625 137.140625 L -47.914062 137.070312 L -47.90625 118.40625 L 107.015625 118.476562 L 107.019531 -36.355469 L 125.683594 -36.355469 L 125.683594 118.484375 L 213.457031 118.523438 C 272.09375 118.550781 319.800781 166.277344 319.800781 224.917969 C 319.800781 283.628906 272.070312 331.355469 213.40625 331.355469 Z M 125.679688 137.152344 L 125.679688 224.960938 C 125.679688 248.394531 134.804688 270.425781 151.375 286.996094 C 167.945312 303.5625 189.972656 312.691406 213.40625 312.691406 C 261.78125 312.691406 301.132812 273.335938 301.132812 224.964844 C 301.132812 176.566406 261.796875 137.210938 213.449219 137.191406 Z M 125.679688 137.152344 "/>
</g>
</svg>
